<?xml version="1.0" standalone="no"?>
<!DOCTYPE svg PUBLIC "-//W3C//DTD SVG 20010904//EN"
 "http://www.w3.org/TR/2001/REC-SVG-20010904/DTD/svg10.dtd">
<svg version="1.0" xmlns="http://www.w3.org/2000/svg"
 width="512.000000pt" height="512.000000pt" viewBox="0 0 512.000000 512.000000"
 preserveAspectRatio="xMidYMid meet">

<g transform="translate(0.000000,512.000000) scale(0.100000,-0.100000)"
fill="#000000" stroke="none">
<path d="M1925 4472 c37 -86 151 -161 280 -183 42 -7 36 -8 -35 -5 -102 5
-179 31 -238 82 -23 19 -42 32 -42 28 0 -4 8 -32 17 -61 30 -96 106 -160 228
-189 l50 -12 -51 -1 c-62 -1 -139 21 -188 54 -20 13 -36 22 -36 19 0 -16 75
-106 100 -121 16 -9 27 -20 24 -25 -11 -17 -148 -8 -193 12 l-44 20 6 -127 c6
-133 24 -218 74 -345 14 -38 32 -68 39 -68 18 0 41 26 64 70 34 67 116 156
187 203 199 133 522 153 723 46 103 -54 195 -169 234 -291 3 -10 14 -18 24
-18 21 0 51 69 74 170 17 80 14 242 -6 320 -23 86 -78 189 -132 247 -46 49
-61 53 -46 12 5 -13 13 -49 16 -79 l7 -55 -25 52 c-28 60 -92 132 -153 174
-23 16 -44 29 -47 29 -2 0 11 -23 30 -51 33 -50 64 -133 64 -173 0 -14 -11 -2
-31 34 -52 96 -117 148 -233 187 -59 21 -90 25 -186 25 -63 0 -146 -5 -185
-11 -154 -23 -272 -9 -349 44 l-36 24 15 -37z"/>
<path d="M2065 3551 c-33 -5 -79 -13 -102 -20 -42 -12 -43 -13 -43 -56 0 -34
5 -47 22 -59 16 -11 27 -38 40 -93 34 -143 87 -185 230 -184 143 1 212 52 263
193 28 79 62 102 103 71 14 -11 31 -38 39 -65 37 -129 130 -199 266 -200 136
-1 201 51 228 182 15 74 26 100 43 100 26 0 37 79 14 97 -29 23 -129 37 -263
38 -123 0 -148 -3 -210 -24 -91 -32 -184 -33 -280 -2 -78 25 -248 35 -350 22z
m309 -60 c57 -25 70 -50 63 -118 -6 -62 -44 -132 -85 -161 -64 -45 -158 -55
-227 -23 -74 34 -104 91 -105 202 0 56 3 69 24 88 13 12 46 26 72 31 75 14
207 4 258 -19z m656 4 c45 -23 53 -48 46 -132 -9 -106 -44 -162 -117 -183
-137 -39 -271 39 -299 175 -18 87 18 133 122 155 60 13 212 4 248 -15z"/>
<path d="M1984 3080 c18 -309 179 -606 383 -707 183 -91 390 -36 533 140 94
115 175 307 199 472 17 121 22 187 12 181 -5 -3 -28 -51 -51 -106 -41 -97
-104 -200 -126 -207 -7 -2 -28 18 -48 45 -40 55 -89 96 -139 117 -22 9 -80 13
-187 14 -201 0 -231 -9 -317 -97 -34 -35 -63 -69 -63 -73 0 -5 -7 -9 -14 -9
-23 0 -91 103 -127 193 -58 144 -62 146 -55 37z m732 -197 c50 -26 49 -54 -6
-106 -51 -48 -75 -46 -75 6 l0 37 -92 0 c-51 0 -93 -3 -93 -6 0 -3 4 -14 10
-24 7 -14 6 -23 -6 -35 -15 -14 -19 -14 -48 4 -17 11 -41 34 -54 52 -22 32
-22 33 -3 52 49 49 287 62 367 20z"/>
<path d="M1434 2115 c-75 -38 -114 -108 -114 -206 0 -133 83 -218 213 -219 94
0 149 34 182 113 l15 37 -53 0 c-48 0 -56 -3 -75 -30 -19 -26 -29 -30 -67 -30
-55 0 -79 21 -96 82 -15 59 3 140 38 168 45 35 115 22 133 -26 9 -21 15 -24
65 -24 54 0 56 1 49 23 -20 66 -52 102 -111 123 -60 21 -123 17 -179 -11z"/>
<path d="M3127 2126 c-105 -39 -159 -165 -124 -287 17 -59 70 -120 120 -138
47 -18 143 -13 186 9 82 41 115 110 109 225 -3 62 -8 80 -33 116 -17 23 -48
51 -69 63 -50 25 -138 31 -189 12z m133 -89 c36 -28 50 -62 50 -120 0 -96 -32
-137 -108 -137 -33 0 -45 6 -66 31 -22 26 -26 40 -26 95 0 70 10 99 44 126 24
20 84 23 106 5z"/>
<path d="M3553 2121 c-53 -25 -76 -61 -76 -117 0 -66 34 -97 145 -131 64 -19
89 -31 94 -46 8 -26 -14 -46 -59 -54 -32 -5 -40 -2 -66 26 -25 27 -36 31 -80
31 -51 0 -51 0 -45 -27 18 -73 83 -113 183 -113 107 0 171 52 171 140 0 58
-45 102 -126 125 -114 31 -137 52 -95 87 31 25 57 23 87 -7 20 -20 35 -25 74
-25 56 0 60 8 30 57 -28 47 -62 65 -133 70 -47 3 -72 -1 -104 -16z"/>
<path d="M1823 1922 c-40 -114 -73 -213 -73 -220 0 -8 17 -12 49 -12 l49 0 17
50 17 50 77 0 77 0 15 -47 15 -48 57 -3 57 -3 -75 217 c-41 119 -75 218 -75
220 0 2 -30 4 -67 4 l-68 0 -72 -208z m162 28 c10 -30 20 -61 23 -67 3 -9 -10
-13 -48 -13 -36 0 -50 4 -48 13 19 70 44 135 49 129 4 -4 15 -32 24 -62z"/>
<path d="M2230 1910 l0 -220 55 0 55 0 0 80 0 80 33 0 c31 0 35 -4 72 -80 l39
-80 53 0 c29 0 53 5 53 10 0 6 -18 46 -40 90 l-40 80 32 29 c27 24 32 36 36
87 3 50 1 63 -19 88 -36 46 -75 56 -209 56 l-120 0 0 -220z m218 124 c26 -18
30 -65 6 -85 -9 -7 -37 -13 -62 -13 l-47 -1 -3 58 -3 57 43 0 c24 0 54 -7 66
-16z"/>
<path d="M2660 1910 l0 -221 153 3 152 3 3 43 3 42 -100 0 -101 0 0 175 0 175
-55 0 -55 0 0 -220z"/>
<path d="M2963 1625 c-11 -8 -23 -24 -26 -35 -4 -17 0 -20 23 -20 16 0 30 5
32 10 2 7 19 5 47 -5 24 -8 50 -15 58 -15 19 0 63 45 63 65 0 18 -46 21 -52 3
-4 -10 -13 -10 -45 0 -53 16 -74 15 -100 -3z"/>
<path d="M3461 1539 c-57 -11 -110 -53 -139 -110 -20 -37 -23 -56 -20 -125 3
-70 7 -86 32 -123 53 -76 152 -107 242 -77 96 32 145 105 145 216 1 155 -111
248 -260 219z m122 -120 c27 -29 33 -57 28 -128 -5 -77 -56 -120 -126 -107
-52 10 -75 52 -75 138 0 57 4 71 25 97 42 49 102 49 148 0z"/>
<path d="M1460 1321 l0 -221 55 0 55 0 0 75 0 75 46 0 c66 0 119 18 151 52 25
26 28 37 28 93 0 107 -43 136 -217 143 l-118 5 0 -222z m211 119 c13 -7 19
-21 19 -45 0 -41 -20 -55 -79 -55 l-41 0 0 55 0 55 41 0 c22 0 49 -5 60 -10z"/>
<path d="M1955 1528 c-2 -7 -17 -51 -33 -98 -17 -47 -44 -125 -62 -175 -17
-49 -35 -100 -41 -113 -16 -39 -11 -43 43 -40 52 3 53 3 64 43 l11 40 80 3 81
3 14 -43 c14 -43 15 -43 66 -46 29 -2 52 1 52 6 0 9 -114 342 -139 405 -10 25
-14 27 -71 27 -40 0 -62 -4 -65 -12z m92 -176 c12 -37 23 -68 23 -69 0 -2 -23
-3 -51 -3 -44 0 -50 2 -45 17 4 9 15 43 24 74 9 32 19 56 21 53 3 -2 15 -35
28 -72z"/>
<path d="M2217 1534 c-4 -4 -7 -25 -7 -46 l0 -38 65 0 65 0 0 -175 0 -175 55
0 55 0 0 175 0 175 66 0 65 0 -3 43 -3 42 -176 3 c-96 1 -178 -1 -182 -4z"/>
<path d="M2640 1321 l0 -221 55 0 55 0 -2 218 -3 217 -52 3 -53 3 0 -220z"/>
<path d="M2840 1320 l0 -220 50 0 49 0 3 141 3 141 80 -141 80 -141 63 0 62 0
-2 218 -3 217 -47 3 -48 3 0 -145 c0 -81 -3 -146 -7 -146 -5 0 -43 66 -87 145
l-78 145 -59 0 -59 0 0 -220z"/>
<path d="M3485 920 c18 -8 18 -9 -5 -10 -21 -2 -22 -3 -5 -7 11 -3 28 -12 38
-21 14 -13 20 -13 30 -2 10 10 9 12 -5 7 -10 -3 -20 -2 -23 3 -4 6 0 10 7 10
8 1 6 6 -6 15 -11 8 -27 15 -35 14 -12 0 -10 -3 4 -9z"/>
<path d="M1493 913 c15 -2 27 -9 27 -14 0 -5 8 -9 18 -9 15 1 15 2 -2 15 -11
8 -31 14 -45 14 -26 -2 -26 -2 2 -6z"/>
<path d="M1660 910 c0 -5 5 -10 11 -10 5 0 7 5 4 10 -3 6 -8 10 -11 10 -2 0
-4 -4 -4 -10z"/>
<path d="M1784 908 c-4 -6 -3 -8 4 -4 5 3 12 1 14 -6 3 -8 6 -9 11 -1 4 6 0
13 -8 17 -8 3 -17 0 -21 -6z"/>
<path d="M1871 903 c7 -12 15 -20 18 -17 3 2 -3 12 -13 22 -17 16 -18 16 -5
-5z"/>
<path d="M1981 913 c0 -5 4 -17 9 -28 8 -17 8 -16 7 8 -1 15 -5 27 -9 27 -4 0
-8 -3 -7 -7z"/>
<path d="M2132 895 c0 -16 2 -22 5 -12 2 9 2 23 0 30 -3 6 -5 -1 -5 -18z"/>
<path d="M2214 908 c1 -7 8 -22 15 -33 10 -16 11 -17 7 -2 -3 11 -2 15 4 12
15 -9 12 -35 -4 -35 -8 0 -17 -4 -20 -9 -4 -5 3 -7 14 -4 11 3 23 10 26 15 9
14 -5 60 -16 53 -6 -3 -10 -1 -10 4 0 6 -4 11 -9 11 -5 0 -8 -6 -7 -12z"/>
<path d="M2364 908 c9 -5 23 -5 32 0 12 6 7 9 -16 9 -23 0 -28 -3 -16 -9z"/>
<path d="M2597 905 c-8 -19 12 -30 26 -16 9 9 8 11 -6 5 -13 -5 -16 -2 -11 10
3 9 4 16 1 16 -3 0 -7 -7 -10 -15z"/>
<path d="M2700 833 c0 -47 3 -83 7 -80 3 4 6 42 6 84 l0 78 7 -60 7 -60 1 63
c2 49 -1 62 -13 62 -12 0 -15 -16 -15 -87z"/>
<path d="M2874 842 c1 -51 -3 -72 -11 -72 -7 0 -13 -4 -13 -8 0 -5 7 -9 15 -9
8 0 15 4 15 8 0 5 16 8 35 7 19 -1 38 2 42 5 3 4 -12 7 -35 7 l-41 0 -4 68 -4
67 1 -73z"/>
<path d="M3056 908 c3 -4 9 -8 15 -8 5 0 9 4 9 8 0 5 -7 9 -15 9 -8 0 -12 -4
-9 -9z"/>
<path d="M3260 911 c0 -11 26 -22 34 -14 12 12 5 23 -14 23 -11 0 -20 -4 -20
-9z"/>
<path d="M3624 898 c3 -13 6 -33 6 -44 0 -30 65 -39 92 -12 22 22 25 46 3 28
-13 -11 -15 -8 -15 19 0 17 -4 31 -8 31 -5 0 -8 -17 -8 -37 1 -35 -2 -38 -28
-41 -28 -3 -28 -2 -24 37 3 30 0 41 -10 41 -10 0 -12 -7 -8 -22z m96 -52 c0
-2 -7 -7 -16 -10 -8 -3 -12 -2 -9 4 6 10 25 14 25 6z"/>
<path d="M2016 902 c-3 -5 1 -9 9 -9 8 0 15 4 15 9 0 4 -4 8 -9 8 -6 0 -12 -4
-15 -8z"/>
<path d="M2310 899 c0 -5 5 -7 10 -4 6 3 10 8 10 11 0 2 -4 4 -10 4 -5 0 -10
-5 -10 -11z"/>
<path d="M2558 903 c7 -3 16 -2 19 1 4 3 -2 6 -13 5 -11 0 -14 -3 -6 -6z"/>
<path d="M3321 886 c7 -15 15 -23 17 -16 3 7 -3 19 -13 28 -15 16 -16 15 -4
-12z"/>
<path d="M3425 883 c-5 -12 -9 -14 -12 -5 -5 13 -23 7 -23 -9 0 -6 5 -7 10 -4
6 4 11 -6 11 -22 2 -27 2 -27 6 -3 3 14 10 31 15 38 6 7 9 15 6 18 -3 3 -9 -3
-13 -13z"/>
<path d="M2408 883 c10 -4 9 -9 -4 -24 -10 -11 -12 -19 -6 -19 21 0 27 4 24
17 -2 7 2 13 8 13 21 0 9 16 -12 17 -13 0 -17 -1 -10 -4z"/>
<path d="M2500 881 c13 -9 13 -11 -2 -11 -14 0 -18 -8 -17 -32 2 -31 2 -31 6
-5 3 16 11 27 19 27 19 0 13 22 -7 28 -11 3 -11 2 1 -7z"/>
<path d="M3203 845 c0 -27 2 -38 4 -22 2 15 2 37 0 50 -2 12 -4 0 -4 -28z"/>
<path d="M1443 835 c0 -27 2 -38 4 -22 2 15 2 37 0 50 -2 12 -4 0 -4 -28z"/>
<path d="M1520 876 c0 -2 8 -10 18 -17 15 -13 16 -12 3 4 -13 16 -21 21 -21
13z"/>
<path d="M2025 870 c-3 -5 -1 -18 5 -27 9 -15 10 -14 4 6 -4 16 -3 21 5 17 6
-4 11 -2 11 3 0 14 -17 14 -25 1z"/>
<path d="M3100 865 c-8 -9 -8 -15 -2 -15 12 0 26 19 19 26 -2 2 -10 -2 -17
-11z"/>
<path d="M1967 863 c-11 -11 -8 -20 7 -20 8 0 12 6 9 14 -6 15 -7 15 -16 6z"/>
<path d="M2311 849 c0 -16 5 -29 15 -33 8 -3 12 -2 9 4 -4 6 6 10 22 11 l28 1
-25 7 c-14 4 -28 3 -32 -2 -3 -6 -8 1 -11 14 -4 23 -4 23 -6 -2z"/>
<path d="M2621 844 c0 -16 -7 -38 -13 -47 -19 -24 -93 -26 -110 -2 -5 6 -8 6
-8 -1 0 -17 27 -37 40 -29 5 3 10 1 10 -4 0 -6 12 -11 28 -11 28 0 54 12 53
24 -3 22 0 36 10 36 5 0 7 -5 3 -12 -4 -7 -3 -8 4 -4 7 4 12 16 12 27 0 11 -4
18 -9 14 -5 -3 -12 5 -14 17 -3 18 -5 16 -6 -8z m-28 -81 c-7 -2 -19 -2 -25 0
-7 3 -2 5 12 5 14 0 19 -2 13 -5z"/>
<path d="M2853 835 c0 -22 2 -30 4 -17 2 12 2 30 0 40 -3 9 -5 -1 -4 -23z"/>
<path d="M3223 835 c0 -22 2 -30 4 -17 2 12 2 30 0 40 -3 9 -5 -1 -4 -23z"/>
<path d="M3553 835 c0 -22 2 -30 4 -17 2 12 2 30 0 40 -3 9 -5 -1 -4 -23z"/>
<path d="M1810 856 c0 -2 7 -7 16 -10 8 -3 12 -2 9 4 -6 10 -25 14 -25 6z"/>
<path d="M3312 835 c0 -16 2 -22 5 -12 2 9 2 23 0 30 -3 6 -5 -1 -5 -18z"/>
<path d="M1660 839 c0 -11 27 -12 34 -1 2 4 -4 9 -15 9 -10 1 -19 -2 -19 -8z"/>
<path d="M1797 839 c7 -7 15 -10 18 -7 3 3 -2 9 -12 12 -14 6 -15 5 -6 -5z"/>
<path d="M1550 824 c0 -8 -4 -13 -9 -10 -4 3 -13 -5 -19 -18 -8 -19 -16 -23
-39 -18 -15 2 -25 2 -22 -2 12 -13 69 -10 82 4 9 10 9 11 0 6 -7 -4 -13 -2
-13 3 0 6 7 11 15 11 8 0 15 9 15 20 0 11 -2 20 -5 20 -3 0 -5 -7 -5 -16z"/>
<path d="M2160 831 c0 -5 9 -7 20 -4 11 3 20 7 20 9 0 2 -9 4 -20 4 -11 0 -20
-4 -20 -9z"/>
<path d="M3100 828 c0 -4 7 -8 15 -8 8 0 15 -5 15 -12 0 -6 2 -9 5 -6 10 9 -5
35 -20 35 -8 0 -15 -4 -15 -9z"/>
<path d="M1952 818 c2 -5 8 -9 13 -9 5 0 11 4 13 9 1 5 -4 9 -13 9 -9 0 -14
-4 -13 -9z"/>
<path d="M1860 800 c-1 -14 -2 -29 -1 -34 1 -5 -6 -5 -16 -2 -14 5 -15 4 -7
-4 16 -16 60 6 46 23 -5 7 -12 19 -15 27 -3 10 -6 6 -7 -10z"/>
<path d="M2051 811 c-9 -6 -11 -14 -4 -26 9 -15 11 -14 15 9 3 14 5 26 4 26 0
0 -7 -4 -15 -9z"/>
<path d="M3630 791 c0 -16 -6 -32 -12 -34 -8 -3 -6 -6 5 -6 13 -1 17 7 17 34
0 19 -2 35 -5 35 -3 0 -5 -13 -5 -29z"/>
<path d="M3055 801 c-3 -6 3 -9 14 -8 11 0 17 5 15 9 -7 11 -22 10 -29 -1z"/>
<path d="M3111 790 c14 -31 19 -36 19 -24 0 6 -7 19 -16 30 -14 18 -14 18 -3
-6z"/>
<path d="M3330 800 c0 -5 -6 -7 -14 -4 -8 3 -16 1 -20 -4 -3 -5 5 -8 16 -7 19
1 41 25 24 25 -3 0 -6 -4 -6 -10z"/>
<path d="M3391 803 c-1 -17 16 -25 25 -12 4 7 3 9 -4 5 -5 -3 -13 0 -15 6 -4
9 -6 10 -6 1z"/>
<path d="M3516 802 c-3 -5 1 -9 9 -9 8 0 12 4 9 9 -3 4 -7 8 -9 8 -2 0 -6 -4
-9 -8z"/>
<path d="M3697 791 c-3 -12 2 -26 11 -33 10 -8 13 -9 9 -1 -4 6 -3 13 2 15 5
1 4 11 -3 21 -13 17 -14 16 -19 -2z"/>
<path d="M1770 790 c0 -5 4 -10 9 -10 6 0 13 5 16 10 3 6 -1 10 -9 10 -9 0
-16 -4 -16 -10z"/>
<path d="M2323 793 c-18 -7 -16 -40 2 -40 9 0 15 10 15 24 0 13 -1 23 -2 22
-2 0 -9 -3 -15 -6z"/>
<path d="M2386 788 c3 -5 9 -6 14 -3 4 3 14 -3 21 -12 12 -15 12 -16 -4 -10
-11 4 -16 3 -12 -3 7 -12 35 -14 35 -2 -1 15 -26 39 -42 39 -9 0 -15 -4 -12
-9z"/>
<path d="M3017 779 c4 -13 8 -18 11 -10 2 7 -1 18 -6 23 -8 8 -9 4 -5 -13z"/>
<path d="M2070 781 c0 -6 4 -13 10 -16 6 -3 7 1 4 9 -7 18 -14 21 -14 7z"/>
<path d="M2220 773 c6 -13 15 -23 20 -23 15 0 21 18 9 26 -8 4 -9 3 -5 -4 11
-19 -5 -14 -21 6 -13 15 -13 15 -3 -5z"/>
<path d="M3206 782 c-2 -4 4 -8 14 -8 10 0 16 4 14 8 -3 4 -9 8 -14 8 -5 0
-11 -4 -14 -8z"/>
<path d="M1673 773 c15 -2 25 -9 22 -14 -10 -14 1 -10 15 6 11 13 7 15 -26 14
-31 -2 -33 -3 -11 -6z"/>
<path d="M1931 768 c-1 -10 6 -18 14 -18 8 0 15 8 15 18 0 13 -2 14 -9 3 -7
-11 -9 -11 -14 0 -4 10 -6 9 -6 -3z"/>
<path d="M2730 772 c0 -4 16 -6 35 -4 19 2 35 6 35 8 0 2 -16 4 -35 4 -19 0
-35 -4 -35 -8z"/>
<path d="M3001 764 c0 -11 3 -14 6 -6 3 7 2 16 -1 19 -3 4 -6 -2 -5 -13z"/>
<path d="M3260 770 c8 -5 22 -10 30 -10 13 0 13 1 0 10 -8 5 -22 10 -30 10
-13 0 -13 -1 0 -10z"/>
<path d="M3426 771 c-4 -5 4 -7 16 -3 14 3 19 2 14 -6 -5 -8 2 -12 21 -11 15
0 22 3 15 6 -6 2 -10 9 -6 14 3 5 -8 9 -25 9 -16 0 -32 -4 -35 -9z"/>
<path d="M1618 753 c7 -3 16 -2 19 1 4 3 -2 6 -13 5 -11 0 -14 -3 -6 -6z"/>
</g>
</svg>
